<svg xmlns="http://www.w3.org/2000/svg" viewBox="0 0 32 32" width="32" height="32">
  <!-- Background: Rounded square with green -->
  <rect x="2" y="2" width="28" height="28" rx="6" ry="6" fill="#0d4a2e"/>
  
  <!-- Golden spade symbol -->
  <path d="M16 6
           C16 6 9 12 9 16.5
           C9 19.5 11 21 13 21
           C14.2 21 15 20.5 16 19.5
           C17 20.5 17.8 21 19 21
           C21 21 23 19.5 23 16.5
           C23 12 16 6 16 6Z"
        fill="#c9a84c"/>
  
  <!-- Spade stem -->
  <path d="M14 20 L14 25 L18 25 L18 20 
           C17 21 15 21 14 20Z"
        fill="#c9a84c"/>
  
  <!-- AI circuit dots - adding tech feel -->
  <circle cx="16" cy="14" r="1.5" fill="#0d4a2e"/>
  <circle cx="13" cy="16" r="1" fill="#0d4a2e" opacity="0.7"/>
  <circle cx="19" cy="16" r="1" fill="#0d4a2e" opacity="0.7"/>
  
  <!-- Subtle golden border -->
  <rect x="2" y="2" width="28" height="28" rx="6" ry="6" 
        fill="none" stroke="#c9a84c" stroke-width="1" opacity="0.6"/>
</svg>
